<?xml version="1.0" encoding="utf-8"?>
<!-- Generator: Adobe Illustrator 16.0.0, SVG Export Plug-In . SVG Version: 6.00 Build 0)  -->
<!DOCTYPE svg PUBLIC "-//W3C//DTD SVG 1.1//EN" "http://www.w3.org/Graphics/SVG/1.1/DTD/svg11.dtd">
<svg version="1.1" id="Layer_1" xmlns="http://www.w3.org/2000/svg" xmlns:xlink="http://www.w3.org/1999/xlink" x="0px" y="0px"
	 width="415px" height="135px" viewBox="0 0 415 135" style="enable-background:new 0 0 415 135;" xml:space="preserve">
<g>
	<g>
		<path style="fill:#1A2854;" d="M0,19.463h28.419v9.14H10.948v3.38h16.281v8.045H10.948v3.618h17.709v9.14H0V19.463z"/>
		<path style="fill:#1A2854;" d="M29.848,19.463h11.14v33.321h-11.14V19.463z"/>
		<path style="fill:#1A2854;" d="M75.88,19.463L65.075,35.696l11.282,17.089H63.693l-5.284-8.663l-5.332,8.663H40.652l11.282-16.946
			L41.129,19.463h12.663l4.808,7.949l4.855-7.949H75.88z"/>
		<path style="fill:#1A2854;" d="M72.552,36.219v-0.095c0-9.664,7.949-17.375,18.232-17.375c10.283,0,18.136,7.617,18.136,17.28
			v0.096c0,9.664-7.95,17.375-18.232,17.375C80.404,53.5,72.552,45.881,72.552,36.219z M97.686,36.219v-0.095
			c0-3.952-2.713-7.522-6.997-7.522c-4.236,0-6.902,3.523-6.902,7.426v0.096c0,3.951,2.713,7.521,6.997,7.521
			C95.02,43.645,97.686,40.122,97.686,36.219z"/>
		<path style="fill:#1A2854;" d="M107.067,47.787l5.95-7.092c3.618,2.761,7.76,3.903,11.663,3.903c2,0,2.856-0.524,2.856-1.429
			v-0.096c0-0.952-1.048-1.476-4.618-2.189c-7.473-1.523-14.042-3.665-14.042-10.71v-0.095c0-6.332,4.951-11.233,14.138-11.233
			c6.425,0,11.187,1.522,15.043,4.57l-5.427,7.521c-3.142-2.285-6.902-3.286-9.997-3.286c-1.667,0-2.427,0.571-2.427,1.38v0.095
			c0,0.904,0.905,1.476,4.427,2.142c8.521,1.571,14.234,4.046,14.234,10.758v0.095c0,6.998-5.76,11.282-14.709,11.282
			C117.397,53.404,111.303,51.5,107.067,47.787z"/>
		<path style="fill:#FFFFFF;" d="M0,63.005h14.995c8.854,0,14.9,3.951,14.9,11.853v0.096c0,8.045-6.141,12.328-15.137,12.328H11.14
			v9.046H0V63.005z M14.138,79.334c2.855,0,4.76-1.287,4.76-3.666v-0.095c0-2.428-1.762-3.666-4.713-3.666h-3.047v7.427H14.138
			L14.138,79.334z"/>
		<path style="fill:#FFFFFF;" d="M30.372,63.005h16.28c5.903,0,9.664,1.476,11.996,3.807c2,2.001,3.047,4.475,3.047,7.903v0.095
			c0,4.855-2.523,8.235-6.57,10.186l7.76,11.332H50.175l-6.284-9.522h-2.38v9.522h-11.14L30.372,63.005L30.372,63.005z
			 M46.32,78.856c2.666,0,4.283-1.191,4.283-3.238v-0.094c0-2.142-1.666-3.189-4.236-3.189h-4.855v6.521H46.32z"/>
		<path style="fill:#FFFFFF;" d="M61.745,79.76v-0.095c0-9.662,7.949-17.375,18.23-17.375c10.282,0,18.138,7.618,18.138,17.281
			v0.095c0,9.662-7.95,17.376-18.231,17.376C69.6,97.041,61.745,89.425,61.745,79.76z M86.879,79.76v-0.095
			c0-3.95-2.713-7.521-6.997-7.521c-4.238,0-6.903,3.523-6.903,7.426v0.095c0,3.951,2.713,7.521,6.997,7.521
			C84.213,87.187,86.879,83.665,86.879,79.76z"/>
		<path style="fill:#FFFFFF;" d="M98.497,79.76v-0.095c0-9.948,7.854-17.375,18.374-17.375c5.711,0,10.33,1.904,13.948,5.047
			l-6.236,7.52c-2.189-1.855-4.617-2.902-7.379-2.902c-4.332,0-7.473,3.333-7.473,7.853v0.097c0,4.711,3.284,7.949,7.95,7.949
			c1.903,0,2.95-0.287,3.808-0.763v-3.331h-5.712v-7.143h16.138v15.426c-3.619,2.95-8.664,4.998-14.709,4.998
			C106.829,97.041,98.497,90.091,98.497,79.76z"/>
		<path style="fill:#FFFFFF;" d="M133.25,63.005h16.28c5.903,0,9.664,1.476,11.996,3.807c1.999,2.001,3.047,4.475,3.047,7.903v0.095
			c0,4.855-2.521,8.235-6.57,10.186l7.759,11.332h-12.71l-6.283-9.522h-2.38v9.522h-11.14V63.005L133.25,63.005z M149.197,78.856
			c2.666,0,4.284-1.191,4.284-3.238v-0.094c0-2.142-1.667-3.189-4.238-3.189h-4.855v6.521H149.197z"/>
		<path style="fill:#FFFFFF;" d="M175.809,62.767h11.043l14.044,33.56h-12.09l-1.762-4.477h-11.661l-1.715,4.477h-11.901
			L175.809,62.767z M184.281,83.951l-3.047-8.094l-3.046,8.094H184.281z"/>
		<path style="fill:#FFFFFF;" d="M200.374,63.005h11.615l7.141,11.71l7.141-11.71h11.614v33.322h-11.092V79.81l-7.663,11.853h-0.19
			l-7.665-11.853v16.518h-10.9V63.005z"/>
		<path style="fill:#FFFFFF;" d="M251.407,62.767h11.044l14.043,33.56h-12.091l-1.761-4.477H250.98l-1.714,4.477h-11.901
			L251.407,62.767z M257.312,52.676l10.996,2.475l-7.617,5.473h-7.949L257.312,52.676z M259.88,83.951l-3.047-8.094l-3.048,8.094
			H259.88z"/>
		<path style="fill:#FFFFFF;" d="M280.208,72.43h-9.806v-9.425h30.752v9.425h-9.806v23.897H280.21V72.43H280.208z"/>
		<path style="fill:#FFFFFF;" d="M301.869,63.005h11.139v33.322h-11.139V63.005z"/>
		<path style="fill:#FFFFFF;" d="M314.247,79.76v-0.095c0-9.948,7.76-17.375,17.709-17.375c7.331,0,12.281,3.572,15.089,8.665
			l-9.187,5.38c-1.237-2.381-2.999-4.046-6.046-4.046c-3.761,0-6.235,3.282-6.235,7.282v0.095c0,4.331,2.571,7.378,6.235,7.378
			c3.144,0,4.904-1.713,6.285-4.188l9.188,5.188c-2.809,4.951-7.475,8.998-15.757,8.998
			C322.292,97.041,314.247,90.091,314.247,79.76z"/>
		<path style="fill:#FFFFFF;" d="M345.811,79.76v-0.095c0-9.662,7.95-17.375,18.232-17.375c10.283,0,18.136,7.618,18.136,17.281
			v0.095c0,9.662-7.948,17.376-18.233,17.376C353.663,97.041,345.811,89.425,345.811,79.76z M370.944,79.76v-0.095
			c0-3.95-2.713-7.521-6.996-7.521c-4.236,0-6.902,3.523-6.902,7.426v0.095c0,3.951,2.713,7.521,6.997,7.521
			C368.279,87.187,370.944,83.665,370.944,79.76z"/>
		<path style="fill:#FFFFFF;" d="M380.326,91.329l5.949-7.093c3.618,2.762,7.76,3.904,11.663,3.904c1.998,0,2.854-0.525,2.854-1.429
			v-0.098c0-0.95-1.045-1.475-4.617-2.188c-7.472-1.523-14.043-3.666-14.043-10.713v-0.093c0-6.331,4.951-11.235,14.138-11.235
			c6.427,0,11.187,1.523,15.044,4.57l-5.427,7.521c-3.144-2.284-6.901-3.284-9.998-3.284c-1.666,0-2.427,0.571-2.427,1.38v0.097
			c0,0.903,0.903,1.476,4.428,2.143c8.521,1.569,14.232,4.045,14.232,10.758v0.095c0,6.996-5.76,11.281-14.709,11.281
			C390.655,96.945,384.562,95.042,380.326,91.329z"/>
	</g>
</g>
</svg>
