<?xml version="1.0" encoding="utf-8"?>
<!-- Generator: Adobe Illustrator 16.0.0, SVG Export Plug-In . SVG Version: 6.00 Build 0)  -->
<!DOCTYPE svg PUBLIC "-//W3C//DTD SVG 1.1//EN" "http://www.w3.org/Graphics/SVG/1.1/DTD/svg11.dtd">
<svg version="1.1" id="Layer_1" xmlns="http://www.w3.org/2000/svg" xmlns:xlink="http://www.w3.org/1999/xlink" x="0px" y="0px"
	 width="450px" height="146px" viewBox="0 0 450 146" style="enable-background:new 0 0 450 146;" xml:space="preserve">
<g>
	<g>
		<g>
			<g>
				<polygon style="fill:#FFFFFF;" points="-11.363,-439.137 40.211,-439.137 49.119,-461.121 47.153,-461.916 38.785,-441.257 
					-9.932,-441.257 -72.656,-596.962 -16.327,-596.962 14.872,-506.804 46.073,-596.962 101.502,-596.962 92.979,-575.815 
					94.944,-575.021 104.644,-599.08 44.562,-599.08 44.316,-598.369 14.872,-513.28 -14.819,-599.08 -75.794,-599.08 				"/>
			</g>
		</g>
		<g>
			<g>
				<path style="fill:#FFFFFF;" d="M-10.133-532.133H8.173l23.272,55.619H11.404l-2.916-7.413h-19.33l-2.84,7.413h-19.725
					L-10.133-532.133z M3.91-497.024l-5.049-13.415l-5.049,13.415H3.91z"/>
				<path style="fill:#F9D543;" d="M21.818-531.739h20.67l10.729,31.007l21.549-59.333h20.354l-33.225,83.949H44.224L21.818-531.739
					z"/>
				<path style="fill:#FFFFFF;" d="M97.95-532.133h18.304l23.273,55.619h-20.039l-2.918-7.413H97.24l-2.84,7.413H74.675
					L97.95-532.133z M111.994-497.024l-5.052-13.415l-5.047,13.415H111.994z"/>
				<path style="fill:#FFFFFF;" d="M141.812-531.739h17.279l19.644,24.379v-24.379h18.306v55.225h-16.412l-20.513-25.482v25.482
					h-18.304V-531.739z"/>
				<path style="fill:#FFFFFF;" d="M217.076-468.778l5.994-7.576c-11.833-3.077-20.984-13.413-20.984-27.613v-0.158
					c0-16.491,12.86-28.798,29.349-28.798c12.152,0,20.355,5.917,25.011,14.36l-15.229,8.914c-2.05-3.945-4.969-6.707-10.02-6.707
					c-6.231,0-10.335,5.445-10.335,12.073v0.159c0,7.178,4.261,12.228,10.335,12.228c5.209,0,8.129-2.836,10.415-6.944l15.228,8.602
					c-4.183,7.416-10.89,13.57-22.25,14.673l-3.786,12.701L217.076-468.778z"/>
				<path style="fill:#FFFFFF;" d="M278.691-532.133h18.304l23.274,55.619h-20.041l-2.918-7.413h-19.33l-2.842,7.413h-19.723
					L278.691-532.133z M292.734-497.024l-5.051-13.415l-5.05,13.415H292.734z"/>
			</g>
		</g>
	</g>
	<g>
		<path style="fill:#F9D543;" d="M375.346-531.803c-0.422,1.266-0.968,2.954-1.635,5.064c-0.67,2.11-1.408,4.45-2.217,7.016
			c-0.809,2.569-1.635,5.241-2.479,8.019c-0.844,2.779-1.654,5.434-2.427,7.966c-0.212,0.775-0.546,1.952-1.003,3.534
			c-0.458,1.583-0.896,3.307-1.318,5.17c-0.423,1.865-0.791,3.782-1.107,5.75c-0.316,1.97-0.494,3.764-0.527,5.381
			c-0.037,1.619,0.14,2.938,0.527,3.957c0.385,1.021,1.107,1.53,2.162,1.53c0.844,0,1.617-0.228,2.321-0.686
			c0.702-0.457,1.335-1.037,1.899-1.741c0.562-0.702,1.055-1.459,1.477-2.268c0.422-0.808,0.809-1.564,1.161-2.269
			c0.211-0.491,0.633-0.702,1.267-0.633c0.633,0.071,1.195,0.105,1.688,0.105c-0.492,1.337-1.092,2.691-1.793,4.062
			c-0.705,1.372-1.566,2.585-2.586,3.64c-1.02,1.055-2.162,1.899-3.429,2.532c-1.267,0.633-2.708,0.914-4.325,0.844
			c-2.182-0.069-3.888-0.633-5.117-1.688c-1.232-1.055-2.111-2.391-2.639-4.009c-0.527-1.618-0.756-3.429-0.686-5.434
			c0.069-2.004,0.28-4.025,0.633-6.066c0.352-2.04,0.773-4.026,1.267-5.961c0.491-1.934,0.95-3.64,1.372-5.117
			c0.772-2.743,1.582-5.608,2.426-8.599c0.844-2.989,1.688-5.856,2.533-8.599l-26.061,39.038c-0.775,1.126-1.372,1.952-1.795,2.479
			c-0.422,0.527-0.861,0.897-1.318,1.108c-0.458,0.211-1.073,0.369-1.846,0.475c-0.775,0.105-1.83,0.3-3.166,0.581
			c0.141-0.773,0.264-1.617,0.369-2.532c0.105-0.914,0.264-1.969,0.475-3.166c0.352-2.179,0.756-4.659,1.214-7.438
			c0.456-2.778,0.95-5.662,1.478-8.652c0.527-2.989,1.071-5.961,1.635-8.916c0.562-2.954,1.107-5.75,1.636-8.388
			c0.527-2.638,1.036-4.976,1.53-7.017c0.49-2.039,0.912-3.656,1.266-4.854c0.069-0.14,0.105-0.28,0.105-0.422
			c0-0.14,0.034-0.28,0.105-0.422c-1.126,0.986-2.269,2.287-3.43,3.904c-1.16,1.619-2.55,3.764-4.167,6.436
			c-1.899,3.236-3.888,6.718-5.962,10.445c-2.074,3.729-4.22,7.438-6.436,11.131c-2.215,3.693-4.52,7.246-6.911,10.657
			c-2.392,3.412-4.905,6.419-7.544,9.021c-2.637,2.602-5.381,4.677-8.229,6.225c-2.85,1.546-5.855,2.285-9.021,2.216
			c-4.432-0.071-7.879-1.161-10.34-3.271c-2.463-2.11-4.098-4.729-4.906-7.86c-0.809-3.129-0.914-6.523-0.316-10.181
			c0.597-3.657,1.723-7.069,3.377-10.234c1.651-3.166,3.745-5.82,6.277-7.966c2.532-2.145,5.311-3.253,8.335-3.324
			c2.039-0.069,3.622,0.422,4.748,1.477c1.124,1.055,2.073,2.463,2.849,4.22c-1.266-0.211-2.479-0.298-3.641-0.264
			c-1.16,0.036-2.305,0.158-3.429,0.369c-3.096,0.633-5.75,1.899-7.966,3.798c-2.215,1.899-3.939,4.081-5.17,6.542
			c-1.231,2.463-2.004,5.048-2.32,7.755c-0.317,2.709-0.106,5.207,0.633,7.491c0.738,2.287,1.986,4.167,3.745,5.645
			c1.757,1.478,4.079,2.216,6.964,2.216c2.039,0,4.131-0.722,6.277-2.163c2.145-1.441,4.342-3.393,6.594-5.856
			c2.251-2.461,4.537-5.275,6.858-8.44c2.321-3.166,4.643-6.489,6.964-9.971s4.624-6.963,6.91-10.445
			c2.285-3.482,4.52-6.734,6.7-9.76c1.757-2.461,3.341-4.642,4.748-6.542c1.406-1.899,2.901-3.498,4.483-4.8
			c1.584-1.301,3.412-2.285,5.487-2.955c2.073-0.667,4.694-1.002,7.86-1.002c-0.564,2.743-1.16,5.786-1.794,9.126
			c-0.633,3.341-1.284,6.789-1.952,10.34c-0.669,3.552-1.355,7.087-2.058,10.604c-0.704,3.518-1.371,6.823-2.004,9.917
			l25.955-38.194c0.562-0.773,1.177-1.213,1.847-1.319c0.667-0.105,1.599-0.158,2.795-0.158c0.352-0.069,0.721-0.105,1.108-0.105
			c0.386,0,0.825,0,1.319,0l2.426-0.105C375.873-533.174,375.626-532.505,375.346-531.803z"/>
		<path style="fill:#F9D543;" d="M411.956-485.379c0.212-0.491,0.634-0.702,1.267-0.633c0.633,0.071,1.195,0.105,1.688,0.105
			c-0.492,1.337-1.091,2.691-1.793,4.062c-0.704,1.372-1.549,2.585-2.533,3.64c-0.985,1.055-2.109,1.899-3.375,2.532
			c-1.267,0.633-2.709,0.914-4.326,0.844c-2.885-0.14-4.943-1.002-6.172-2.585c-1.232-1.583-1.953-3.569-2.164-5.961
			c-1.83,2.532-3.851,4.59-6.066,6.172c-2.215,1.583-4.59,2.374-7.121,2.374c-3.377,0-5.875-1.055-7.492-3.165
			c-1.618-2.11-2.516-4.765-2.689-7.966c-0.176-3.2,0.227-6.663,1.213-10.393c0.984-3.727,2.443-7.191,4.379-10.393
			c1.934-3.2,4.201-5.872,6.805-8.019c2.602-2.145,5.381-3.218,8.336-3.218c2.109,0,3.851,0.475,5.223,1.424
			c1.371,0.95,2.443,2.234,3.217,3.851c0.423-1.477,0.826-2.496,1.214-3.06c0.386-0.562,0.932-0.914,1.636-1.055
			c0.702-0.14,1.635-0.211,2.796-0.211s2.69-0.106,4.589-0.317c-0.141,0.353-0.264,0.775-0.369,1.266
			c-0.105,0.493-0.229,0.915-0.369,1.266c-0.563,1.83-1.126,3.693-1.688,5.592c-0.564,1.899-1.127,3.729-1.688,5.486
			c-0.211,0.775-0.546,1.952-1.003,3.534c-0.457,1.583-0.896,3.307-1.318,5.17c-0.422,1.865-0.791,3.782-1.107,5.75
			c-0.316,1.97-0.493,3.764-0.528,5.381c-0.036,1.619,0.141,2.938,0.528,3.957c0.386,1.021,1.107,1.53,2.162,1.53
			c0.845,0,1.617-0.228,2.322-0.686c0.701-0.457,1.335-1.037,1.898-1.741c0.562-0.702,1.055-1.459,1.478-2.268
			C411.323-483.918,411.674-484.675,411.956-485.379z M383.047-478.416c1.757,0,3.445-0.878,5.064-2.638
			c1.617-1.757,3.076-3.973,4.379-6.647c1.301-2.672,2.391-5.556,3.271-8.652c0.878-3.094,1.406-5.978,1.583-8.651
			c0.174-2.672-0.019-4.888-0.581-6.647c-0.563-1.757-1.618-2.638-3.165-2.638c-1.548,0-3.112,0.88-4.695,2.638
			c-1.582,1.759-3.043,3.975-4.379,6.647c-1.336,2.674-2.497,5.557-3.48,8.651c-0.986,3.096-1.602,5.979-1.848,8.652
			c-0.246,2.674-0.088,4.89,0.476,6.647C380.232-479.294,381.359-478.416,383.047-478.416z"/>
		<path style="fill:#F9D543;" d="M443.503-485.379c0.211-0.491,0.633-0.702,1.267-0.633c0.633,0.071,1.195,0.105,1.688,0.105
			c-0.492,1.337-1.092,2.674-1.793,4.01c-0.705,1.337-1.549,2.55-2.533,3.64c-0.985,1.091-2.109,1.952-3.376,2.585
			c-1.267,0.633-2.708,0.914-4.326,0.844c-2.251-0.069-3.992-0.597-5.222-1.583c-1.232-0.984-2.111-2.25-2.639-3.798
			c-0.527-1.546-0.774-3.271-0.738-5.17c0.035-1.899,0.211-3.851,0.527-5.856c0.316-2.004,0.721-3.938,1.214-5.803
			c0.491-1.863,0.95-3.535,1.372-5.012c0.14-0.351,0.245-0.739,0.316-1.161c0.068-0.422,0.174-0.808,0.316-1.161
			c0.279-1.124,0.51-1.934,0.686-2.427c0.175-0.491,0.211-0.86,0.105-1.107c-0.105-0.246-0.406-0.457-0.897-0.633
			c-0.492-0.175-1.266-0.509-2.321-1.002c-0.352-0.211-0.773-0.438-1.266-0.686c-0.492-0.246-1.125-0.544-1.898-0.897
			c-0.633,1.688-1.391,3.764-2.27,6.225c-0.88,2.463-1.758,4.942-2.637,7.438c-0.881,2.498-1.707,4.818-2.48,6.963
			c-0.773,2.146-1.371,3.746-1.793,4.801c-0.211,0.563-0.633,0.809-1.266,0.738c-0.633-0.069-1.197-0.105-1.688-0.105
			c0.351-0.844,0.913-2.443,1.688-4.801c0.772-2.355,1.599-4.94,2.479-7.755c0.879-2.812,1.775-5.592,2.691-8.335
			c0.912-2.743,1.651-4.922,2.215-6.542c-1.548-0.913-2.603-1.828-3.165-2.743c-0.563-0.914-0.844-1.723-0.844-2.427
			c0-0.844,0.403-1.494,1.214-1.952c0.807-0.457,1.793-0.826,2.953-1.108c1.161-0.28,2.391-0.544,3.693-0.792
			c1.301-0.246,2.479-0.58,3.534-1.002c-0.353,1.266-0.651,2.252-0.896,2.955c-0.247,0.704-0.511,1.442-0.792,2.215
			c2.322,0.986,4.606,1.899,6.858,2.743c1.478,0.564,2.654,1.073,3.534,1.53c0.879,0.458,1.494,1.02,1.848,1.688
			c0.351,0.669,0.475,1.495,0.369,2.479c-0.105,0.986-0.406,2.287-0.897,3.904c-0.142,0.353-0.247,0.738-0.316,1.161
			c-0.071,0.422-0.177,0.809-0.316,1.161c-0.212,0.774-0.528,1.917-0.95,3.429c-0.422,1.514-0.844,3.166-1.266,4.959
			s-0.775,3.624-1.056,5.486c-0.281,1.865-0.421,3.553-0.421,5.064c0,1.514,0.192,2.761,0.58,3.746
			c0.385,0.986,1.107,1.477,2.162,1.477c0.845,0,1.617-0.228,2.322-0.686c0.701-0.457,1.334-1.019,1.898-1.688
			c0.562-0.667,1.055-1.406,1.477-2.215C442.87-483.918,443.221-484.675,443.503-485.379z"/>
		<path style="fill:#F9D543;" d="M460.067-485.282c0.211-0.557,0.614-0.799,1.213-0.73c0.597,0.071,1.177,0.105,1.741,0.105
			c-0.422,1.337-0.986,2.691-1.688,4.062c-0.705,1.372-1.566,2.585-2.586,3.64c-1.02,1.055-2.162,1.899-3.429,2.532
			c-1.267,0.633-2.708,0.914-4.325,0.844c-2.252-0.073-3.994-0.651-5.223-1.738c-1.232-1.084-2.094-2.438-2.586-4.06
			c-0.492-1.621-0.703-3.434-0.633-5.439c0.069-2.004,0.28-4.025,0.633-6.066c0.352-2.04,0.773-4.026,1.267-5.961
			c0.491-1.934,0.949-3.64,1.372-5.117c0.422-1.546,0.859-3.147,1.318-4.801c0.457-1.652,0.932-3.287,1.424-4.906
			c0.422-1.406,0.826-2.391,1.214-2.955c0.386-0.562,0.931-0.931,1.636-1.107c0.701-0.175,1.635-0.246,2.795-0.211
			c1.161,0.037,2.654-0.053,4.484-0.264c-0.142,0.353-0.264,0.775-0.369,1.266c-0.105,0.493-0.229,0.915-0.369,1.266
			c-0.564,1.83-1.126,3.693-1.688,5.592c-0.564,1.899-1.127,3.729-1.689,5.487c-0.211,0.775-0.545,1.952-1.002,3.534
			c-0.458,1.583-0.896,3.307-1.318,5.17c-0.422,1.865-0.791,3.782-1.107,5.75c-0.317,1.97-0.494,3.764-0.528,5.381
			c-0.036,1.619,0.14,2.938,0.528,3.957c0.385,1.021,1.107,1.53,2.162,1.53c0.844,0,1.617-0.224,2.321-0.676
			c0.702-0.45,1.335-1.004,1.899-1.664c0.562-0.659,1.055-1.386,1.477-2.184S459.785-484.588,460.067-485.282z M450.677-525.367
			c-0.493,0.071-0.862,0.105-1.108,0.105s-0.475-0.053-0.686-0.158s-0.422-0.246-0.633-0.422c-0.211-0.175-0.527-0.404-0.949-0.686
			c1.406-0.422,2.707-1.071,3.904-1.952c1.195-0.879,2.284-1.863,3.27-2.955c0.984-1.089,1.9-2.25,2.744-3.481
			c0.844-1.23,1.617-2.443,2.32-3.64c0.211,0.493,0.528,1.055,0.95,1.688c0.422,0.633,0.772,1.266,1.056,1.899
			c0.279,0.633,0.438,1.25,0.475,1.846c0.034,0.599-0.158,1.108-0.58,1.53c-1.408,1.408-3.008,2.709-4.802,3.904
			C454.845-526.491,452.856-525.718,450.677-525.367z"/>
		<path style="fill:#F9D543;" d="M479.902-531.803c-0.422,1.266-0.968,2.954-1.635,5.064c-0.67,2.11-1.408,4.45-2.217,7.016
			c-0.809,2.569-1.635,5.241-2.479,8.019c-0.844,2.779-1.654,5.434-2.428,7.966c-0.211,0.775-0.545,1.952-1.002,3.534
			c-0.458,1.583-0.896,3.307-1.318,5.17c-0.422,1.865-0.791,3.782-1.107,5.75c-0.317,1.97-0.494,3.764-0.528,5.381
			c-0.036,1.619,0.14,2.938,0.528,3.957c0.385,1.021,1.107,1.53,2.162,1.53c0.844,0,1.617-0.228,2.321-0.686
			c0.702-0.457,1.335-1.037,1.899-1.741c0.562-0.702,1.055-1.459,1.477-2.268c0.422-0.808,0.809-1.564,1.161-2.269
			c0.14-0.491,0.527-0.702,1.161-0.633c0.633,0.071,1.194,0.105,1.688,0.105c-0.422,1.337-0.986,2.691-1.688,4.062
			c-0.705,1.372-1.566,2.585-2.586,3.64c-1.02,1.055-2.162,1.899-3.429,2.532c-1.267,0.633-2.708,0.914-4.325,0.844
			c-2.182-0.069-3.889-0.633-5.117-1.688c-1.232-1.055-2.111-2.391-2.639-4.009c-0.527-1.618-0.756-3.429-0.686-5.434
			c0.069-2.004,0.28-4.025,0.633-6.066c0.352-2.04,0.773-4.026,1.267-5.961c0.491-1.934,0.949-3.64,1.371-5.117
			c0.634-2.179,1.282-4.5,1.952-6.963c0.668-2.461,1.354-4.854,2.058-7.175c0.702-2.321,1.372-4.537,2.005-6.647
			c0.633-2.11,1.194-3.938,1.688-5.486c0.422-1.406,0.861-2.391,1.319-2.954c0.456-0.562,1.036-0.932,1.741-1.108
			c0.701-0.175,1.651-0.246,2.848-0.211c1.195,0.036,2.744-0.053,4.643-0.264c-0.142,0.353-0.264,0.704-0.369,1.055
			C480.166-532.505,480.043-532.154,479.902-531.803z"/>
		<path style="fill:#F9D543;" d="M493.196-485.273c0.211-0.562,0.614-0.808,1.213-0.739c0.597,0.071,1.177,0.105,1.741,0.105
			c-0.422,1.337-0.986,2.691-1.688,4.062c-0.705,1.372-1.566,2.585-2.586,3.64c-1.02,1.055-2.162,1.899-3.429,2.532
			c-1.267,0.633-2.708,0.914-4.325,0.844c-2.252-0.069-3.994-0.633-5.223-1.688c-1.232-1.055-2.094-2.391-2.586-4.009
			c-0.492-1.618-0.703-3.429-0.633-5.434c0.069-2.004,0.28-4.025,0.633-6.066c0.352-2.04,0.773-4.026,1.267-5.961
			c0.491-1.934,0.949-3.64,1.372-5.117c0.422-1.546,0.859-3.147,1.318-4.8c0.457-1.652,0.932-3.288,1.424-4.906
			c0.422-1.406,0.826-2.391,1.214-2.954c0.386-0.562,0.931-0.932,1.636-1.108c0.701-0.175,1.635-0.246,2.795-0.211
			c1.161,0.036,2.654-0.053,4.484-0.264c-0.142,0.353-0.264,0.775-0.369,1.266c-0.105,0.493-0.229,0.915-0.369,1.266
			c-0.564,1.83-1.126,3.693-1.688,5.592c-0.564,1.899-1.127,3.729-1.689,5.486c-0.211,0.775-0.545,1.952-1.002,3.534
			c-0.458,1.583-0.896,3.307-1.318,5.17c-0.422,1.865-0.792,3.782-1.107,5.75c-0.317,1.97-0.494,3.764-0.528,5.381
			c-0.036,1.619,0.14,2.938,0.528,3.957c0.385,1.021,1.107,1.53,2.162,1.53c0.844,0,1.617-0.228,2.321-0.686
			c0.702-0.457,1.335-1.019,1.899-1.688c0.562-0.667,1.055-1.406,1.477-2.215C492.562-483.813,492.914-484.569,493.196-485.273z
			 M489.398-521.252c-1.267,0-2.322-0.457-3.166-1.372c-0.844-0.913-1.197-2.039-1.055-3.376c0.14-1.335,0.702-2.461,1.688-3.376
			c0.984-0.913,2.145-1.372,3.481-1.372c1.267,0,2.321,0.458,3.166,1.372c0.844,0.915,1.195,2.041,1.056,3.376
			c-0.143,1.337-0.705,2.463-1.689,3.376C491.894-521.708,490.732-521.252,489.398-521.252z"/>
		<path style="fill:#F9D543;" d="M532.973-485.379c0.211-0.491,0.633-0.702,1.266-0.633c0.633,0.071,1.195,0.105,1.688,0.105
			c-0.493,1.337-1.091,2.691-1.794,4.062c-0.704,1.372-1.548,2.585-2.532,3.64c-0.985,1.055-2.11,1.899-3.376,2.532
			c-1.266,0.633-2.709,0.914-4.326,0.844c-2.885-0.14-4.942-1.002-6.172-2.585c-1.231-1.583-1.952-3.569-2.163-5.961
			c-1.83,2.532-3.851,4.59-6.067,6.172c-2.215,1.583-4.589,2.374-7.121,2.374c-3.377,0-5.874-1.055-7.491-3.165
			c-1.618-2.11-2.516-4.765-2.69-7.966c-0.175-3.2,0.228-6.663,1.213-10.393c0.984-3.727,2.443-7.191,4.379-10.393
			c1.934-3.2,4.202-5.872,6.806-8.019c2.601-2.145,5.381-3.218,8.335-3.218c2.11,0,3.852,0.475,5.223,1.424s2.443,2.234,3.218,3.851
			c0.423-1.477,0.826-2.496,1.214-3.06c0.385-0.562,0.931-0.914,1.635-1.055c0.703-0.14,1.636-0.211,2.796-0.211
			c1.161,0,2.69-0.106,4.59-0.317c-0.142,0.353-0.264,0.775-0.369,1.266c-0.105,0.493-0.229,0.915-0.369,1.266
			c-0.563,1.83-1.126,3.693-1.688,5.592c-0.563,1.899-1.126,3.729-1.688,5.486c-0.211,0.775-0.546,1.952-1.003,3.534
			c-0.458,1.583-0.896,3.307-1.319,5.17c-0.422,1.865-0.791,3.782-1.107,5.75c-0.316,1.97-0.492,3.764-0.527,5.381
			c-0.036,1.619,0.141,2.938,0.527,3.957c0.387,1.021,1.107,1.53,2.163,1.53c0.845,0,1.617-0.228,2.321-0.686
			c0.702-0.457,1.336-1.037,1.898-1.741c0.562-0.702,1.056-1.459,1.479-2.268C532.34-483.918,532.69-484.675,532.973-485.379z
			 M504.062-478.416c1.758,0,3.446-0.878,5.064-2.638c1.617-1.757,3.076-3.973,4.379-6.647c1.301-2.672,2.391-5.556,3.271-8.652
			c0.878-3.094,1.406-5.978,1.582-8.651c0.175-2.672-0.018-4.888-0.58-6.647c-0.564-1.757-1.619-2.638-3.166-2.638
			s-3.111,0.88-4.694,2.638c-1.583,1.759-3.044,3.975-4.379,6.647c-1.337,2.674-2.497,5.557-3.481,8.651
			c-0.986,3.096-1.602,5.979-1.847,8.652c-0.247,2.674-0.089,4.89,0.476,6.647C501.249-479.294,502.375-478.416,504.062-478.416z"/>
	</g>
</g>
<g>
	<g>
		<g>
			<g>
				<polygon style="fill:#FFFFFF;" points="48.335,116.926 86.038,116.926 92.55,100.854 91.113,100.273 84.996,115.377 
					49.381,115.377 3.527,1.548 44.706,1.548 67.515,67.458 90.324,1.548 130.844,1.548 124.613,17.008 126.05,17.588 133.141,0 
					89.219,0 89.039,0.52 67.515,62.724 45.809,0 1.233,0 				"/>
			</g>
		</g>
		<g>
			<g>
				<path style="fill:#FFFFFF;" d="M49.234,48.941h13.382L79.63,89.602H64.979l-2.132-5.42H48.716l-2.076,5.42H32.221L49.234,48.941
					z M59.5,74.607L55.81,64.8l-3.691,9.807H59.5z"/>
				<path style="fill:#F9D543;" d="M72.592,49.229h15.11l7.844,22.667L111.3,28.522h14.88l-24.289,61.371h-12.92L72.592,49.229z"/>
				<path style="fill:#FFFFFF;" d="M128.248,48.941h13.38l17.014,40.661h-14.649l-2.133-5.42h-14.131l-2.076,5.42h-14.42
					L128.248,48.941z M138.514,74.607l-3.693-9.807l-3.689,9.807H138.514z"/>
				<path style="fill:#FFFFFF;" d="M160.313,49.229h12.632l14.36,17.822V49.229h13.382v40.373h-11.998l-14.996-18.629v18.629h-13.38
					V49.229z"/>
				<path style="fill:#FFFFFF;" d="M215.333,95.256l4.382-5.539c-8.649-2.248-15.34-9.805-15.34-20.185v-0.116
					c0-12.056,9.401-21.052,21.455-21.052c8.884,0,14.88,4.326,18.284,10.498l-11.133,6.516c-1.499-2.884-3.633-4.903-7.325-4.903
					c-4.555,0-7.555,3.981-7.555,8.826v0.116c0,5.248,3.115,8.939,7.555,8.939c3.808,0,5.943-2.074,7.615-5.077l11.131,6.288
					c-3.058,5.422-7.96,9.922-16.266,10.727l-2.768,9.285L215.333,95.256z"/>
				<path style="fill:#FFFFFF;" d="M260.377,48.941h13.381l17.015,40.661h-14.651l-2.133-5.42h-14.131l-2.077,5.42h-14.418
					L260.377,48.941z M270.643,74.607l-3.691-9.807l-3.692,9.807H270.643z"/>
			</g>
		</g>
	</g>
	<g>
		<path style="fill:#F9D543;" d="M331.035,49.183c-0.309,0.926-0.708,2.16-1.195,3.702c-0.489,1.543-1.029,3.253-1.62,5.129
			c-0.592,1.878-1.195,3.831-1.812,5.862c-0.617,2.032-1.21,3.972-1.774,5.824c-0.155,0.567-0.399,1.427-0.733,2.583
			c-0.334,1.157-0.655,2.418-0.964,3.779c-0.31,1.363-0.578,2.766-0.809,4.205c-0.231,1.439-0.362,2.75-0.386,3.934
			c-0.027,1.182,0.102,2.146,0.386,2.893c0.28,0.744,0.809,1.117,1.58,1.117c0.616,0,1.183-0.166,1.696-0.5
			c0.514-0.336,0.977-0.76,1.389-1.273s0.771-1.068,1.079-1.658c0.309-0.592,0.592-1.145,0.85-1.658
			c0.154-0.359,0.463-0.514,0.926-0.463s0.874,0.076,1.233,0.076c-0.359,0.979-0.798,1.967-1.311,2.969
			c-0.516,1.004-1.146,1.891-1.89,2.662c-0.746,0.771-1.581,1.389-2.508,1.852c-0.925,0.463-1.979,0.668-3.161,0.617
			c-1.596-0.051-2.842-0.463-3.741-1.234c-0.9-0.771-1.543-1.748-1.929-2.932c-0.386-1.182-0.553-2.506-0.501-3.973
			c0.05-1.465,0.204-2.941,0.462-4.434c0.258-1.49,0.566-2.943,0.926-4.357c0.359-1.415,0.695-2.662,1.004-3.742
			c0.564-2.006,1.156-4.101,1.772-6.287c0.618-2.185,1.235-4.281,1.853-6.286l-19.052,28.539c-0.566,0.822-1.002,1.428-1.312,1.812
			c-0.309,0.385-0.631,0.656-0.964,0.809c-0.335,0.154-0.784,0.27-1.349,0.348c-0.567,0.076-1.339,0.221-2.315,0.424
			c0.103-0.564,0.192-1.182,0.27-1.85s0.193-1.439,0.348-2.314c0.257-1.594,0.552-3.406,0.888-5.438
			c0.333-2.031,0.694-4.139,1.079-6.325c0.386-2.185,0.783-4.358,1.195-6.518c0.411-2.16,0.81-4.204,1.196-6.132
			c0.385-1.928,0.758-3.637,1.118-5.129c0.358-1.491,0.667-2.673,0.925-3.548c0.052-0.103,0.077-0.205,0.077-0.309
			c0-0.102,0.025-0.204,0.077-0.308c-0.822,0.721-1.658,1.672-2.507,2.854c-0.848,1.183-1.864,2.751-3.047,4.705
			c-1.388,2.365-2.842,4.911-4.357,7.636c-1.517,2.727-3.085,5.438-4.704,8.137c-1.62,2.699-3.305,5.299-5.053,7.791
			c-1.749,2.494-3.587,4.693-5.515,6.594c-1.928,1.902-3.935,3.42-6.017,4.553c-2.082,1.129-4.28,1.67-6.595,1.617
			c-3.239-0.051-5.76-0.848-7.559-2.391c-1.801-1.541-2.996-3.457-3.587-5.746c-0.591-2.287-0.668-4.768-0.23-7.441
			c0.436-2.674,1.259-5.169,2.469-7.482c1.206-2.314,2.737-4.255,4.589-5.824c1.851-1.568,3.882-2.378,6.093-2.43
			c1.49-0.05,2.648,0.309,3.471,1.08c0.822,0.771,1.516,1.801,2.083,3.085c-0.926-0.154-1.812-0.218-2.661-0.192
			c-0.849,0.026-1.686,0.115-2.508,0.27c-2.262,0.463-4.203,1.389-5.822,2.777c-1.619,1.389-2.88,2.982-3.78,4.781
			c-0.899,1.801-1.464,3.691-1.695,5.67c-0.233,1.98-0.079,3.807,0.462,5.477c0.54,1.672,1.452,3.047,2.737,4.127
			c1.285,1.078,2.983,1.619,5.092,1.619c1.49,0,3.02-0.529,4.589-1.582c1.568-1.053,3.174-2.479,4.82-4.279
			c1.646-1.801,3.317-3.857,5.014-6.17c1.697-2.316,3.395-4.744,5.091-7.29c1.697-2.545,3.381-5.09,5.052-7.636
			s3.304-4.923,4.898-7.135c1.284-1.799,2.441-3.394,3.471-4.782c1.027-1.388,2.121-2.558,3.277-3.51
			c1.157-0.951,2.495-1.67,4.012-2.159c1.515-0.488,3.432-0.733,5.746-0.733c-0.413,2.005-0.848,4.23-1.312,6.672
			c-0.462,2.443-0.938,4.963-1.427,7.559c-0.489,2.597-0.991,5.181-1.504,7.751c-0.516,2.572-1.003,4.989-1.466,7.251l18.975-27.922
			c0.41-0.565,0.86-0.887,1.35-0.964c0.488-0.077,1.169-0.116,2.043-0.116c0.258-0.05,0.527-0.077,0.811-0.077s0.604,0,0.965,0
			l1.773-0.077C331.421,48.18,331.24,48.669,331.035,49.183z"/>
		<path style="fill:#F9D543;" d="M357.799,83.121c0.154-0.359,0.464-0.514,0.927-0.463c0.462,0.051,0.873,0.076,1.232,0.076
			c-0.359,0.979-0.797,1.967-1.31,2.969c-0.516,1.004-1.133,1.891-1.853,2.662c-0.721,0.771-1.542,1.389-2.467,1.852
			c-0.926,0.463-1.98,0.668-3.163,0.617c-2.109-0.104-3.614-0.732-4.512-1.891c-0.901-1.156-1.428-2.609-1.582-4.357
			c-1.338,1.852-2.815,3.355-4.435,4.512c-1.619,1.158-3.355,1.736-5.206,1.736c-2.469,0-4.295-0.771-5.478-2.314
			s-1.839-3.482-1.966-5.824c-0.129-2.338,0.166-4.871,0.887-7.598c0.72-2.725,1.786-5.255,3.201-7.597
			c1.414-2.339,3.071-4.292,4.975-5.861c1.902-1.568,3.934-2.353,6.094-2.353c1.543,0,2.814,0.347,3.818,1.041
			c1.002,0.694,1.785,1.633,2.352,2.815c0.309-1.08,0.604-1.825,0.887-2.237c0.283-0.412,0.682-0.668,1.196-0.771
			c0.514-0.103,1.195-0.154,2.044-0.154c0.85,0,1.967-0.077,3.354-0.231c-0.103,0.258-0.193,0.566-0.271,0.926
			c-0.077,0.36-0.166,0.669-0.269,0.926c-0.412,1.337-0.824,2.699-1.234,4.088c-0.412,1.388-0.823,2.726-1.234,4.011
			c-0.154,0.567-0.398,1.427-0.733,2.583c-0.334,1.157-0.655,2.418-0.964,3.779c-0.308,1.363-0.577,2.766-0.81,4.205
			c-0.231,1.439-0.36,2.75-0.386,3.934c-0.026,1.182,0.103,2.146,0.386,2.893c0.282,0.744,0.81,1.117,1.582,1.117
			c0.617,0,1.182-0.166,1.696-0.5c0.514-0.336,0.977-0.76,1.389-1.273c0.411-0.514,0.771-1.068,1.08-1.658
			C357.336,84.188,357.593,83.635,357.799,83.121z M336.666,88.211c1.283,0,2.518-0.643,3.701-1.928
			c1.183-1.285,2.25-2.904,3.202-4.859c0.951-1.953,1.747-4.062,2.39-6.326c0.642-2.261,1.029-4.369,1.158-6.324
			c0.126-1.953-0.014-3.573-0.426-4.859c-0.412-1.284-1.183-1.928-2.313-1.928s-2.275,0.644-3.432,1.928
			c-1.157,1.286-2.225,2.906-3.201,4.859c-0.978,1.956-1.826,4.063-2.545,6.324c-0.721,2.264-1.171,4.373-1.351,6.326
			c-0.181,1.955-0.064,3.574,0.348,4.859C334.607,87.568,335.432,88.211,336.666,88.211z"/>
		<path style="fill:#F9D543;" d="M380.861,83.121c0.154-0.359,0.462-0.514,0.926-0.463c0.462,0.051,0.873,0.076,1.233,0.076
			c-0.36,0.979-0.798,1.955-1.311,2.932c-0.516,0.977-1.132,1.863-1.852,2.66c-0.721,0.799-1.542,1.428-2.468,1.891
			c-0.927,0.463-1.979,0.668-3.164,0.617c-1.645-0.051-2.918-0.438-3.815-1.158c-0.901-0.719-1.544-1.645-1.93-2.775
			s-0.566-2.393-0.54-3.779c0.025-1.391,0.154-2.816,0.386-4.281s0.526-2.879,0.888-4.242c0.358-1.361,0.694-2.585,1.003-3.664
			c0.103-0.257,0.179-0.54,0.23-0.849c0.05-0.309,0.127-0.59,0.231-0.849c0.205-0.822,0.373-1.413,0.502-1.774
			c0.127-0.359,0.154-0.628,0.077-0.81c-0.077-0.179-0.297-0.334-0.656-0.463c-0.359-0.128-0.925-0.373-1.696-0.733
			c-0.258-0.154-0.566-0.321-0.927-0.501c-0.359-0.179-0.821-0.397-1.387-0.656c-0.464,1.234-1.018,2.751-1.659,4.55
			c-0.644,1.801-1.285,3.614-1.928,5.438c-0.645,1.826-1.248,3.521-1.813,5.09c-0.565,1.57-1.003,2.738-1.311,3.51
			c-0.154,0.412-0.463,0.592-0.926,0.541c-0.462-0.051-0.875-0.078-1.234-0.078c0.257-0.617,0.668-1.787,1.234-3.51
			c0.565-1.721,1.169-3.611,1.812-5.669c0.643-2.056,1.298-4.087,1.967-6.093c0.667-2.005,1.208-3.598,1.62-4.782
			c-1.132-0.667-1.903-1.337-2.314-2.006c-0.412-0.667-0.616-1.259-0.616-1.774c0-0.617,0.294-1.092,0.888-1.427
			c0.589-0.334,1.31-0.604,2.157-0.81c0.85-0.205,1.748-0.397,2.7-0.578c0.951-0.18,1.813-0.424,2.584-0.733
			c-0.258,0.926-0.476,1.646-0.655,2.16c-0.181,0.515-0.373,1.054-0.579,1.62c1.698,0.721,3.368,1.389,5.014,2.005
			c1.081,0.412,1.941,0.785,2.584,1.119c0.643,0.335,1.093,0.746,1.351,1.234c0.256,0.489,0.347,1.093,0.27,1.813
			c-0.077,0.721-0.297,1.671-0.655,2.853c-0.104,0.258-0.181,0.54-0.232,0.849c-0.052,0.309-0.129,0.593-0.23,0.849
			c-0.155,0.565-0.387,1.401-0.694,2.506c-0.309,1.106-0.617,2.315-0.926,3.626c-0.308,1.311-0.566,2.648-0.772,4.01
			c-0.205,1.363-0.307,2.598-0.307,3.703s0.141,2.018,0.424,2.738c0.281,0.719,0.81,1.08,1.581,1.08
			c0.617,0,1.182-0.168,1.697-0.502c0.513-0.334,0.975-0.746,1.388-1.234c0.411-0.488,0.771-1.029,1.08-1.619
			C380.398,84.188,380.655,83.635,380.861,83.121z"/>
		<path style="fill:#F9D543;" d="M392.97,83.191c0.155-0.406,0.45-0.584,0.887-0.533c0.438,0.051,0.86,0.076,1.273,0.076
			c-0.309,0.979-0.722,1.967-1.233,2.969c-0.516,1.004-1.146,1.891-1.89,2.662c-0.746,0.771-1.582,1.389-2.508,1.852
			s-1.979,0.668-3.161,0.617c-1.646-0.055-2.92-0.477-3.818-1.271c-0.901-0.793-1.531-1.781-1.891-2.967
			c-0.36-1.186-0.514-2.51-0.462-3.977c0.05-1.465,0.204-2.943,0.462-4.436c0.258-1.49,0.565-2.943,0.926-4.357
			c0.359-1.414,0.693-2.661,1.004-3.741c0.309-1.131,0.628-2.301,0.963-3.51c0.334-1.207,0.682-2.402,1.041-3.586
			c0.309-1.028,0.604-1.748,0.888-2.16c0.282-0.411,0.681-0.681,1.195-0.81c0.514-0.127,1.195-0.179,2.043-0.154
			c0.85,0.027,1.941-0.039,3.279-0.193c-0.104,0.258-0.193,0.566-0.271,0.926c-0.077,0.36-0.167,0.669-0.27,0.925
			c-0.413,1.338-0.823,2.7-1.234,4.088c-0.411,1.388-0.823,2.726-1.234,4.01c-0.154,0.567-0.398,1.427-0.732,2.583
			c-0.335,1.158-0.656,2.418-0.964,3.781c-0.309,1.361-0.578,2.764-0.81,4.203c-0.232,1.439-0.361,2.752-0.387,3.934
			c-0.025,1.184,0.103,2.148,0.387,2.893c0.281,0.746,0.81,1.119,1.581,1.119c0.616,0,1.182-0.164,1.696-0.494
			c0.514-0.33,0.977-0.734,1.389-1.217c0.411-0.482,0.771-1.014,1.079-1.598C392.507,84.244,392.764,83.699,392.97,83.191z
			 M386.105,53.888c-0.361,0.052-0.63,0.077-0.811,0.077c-0.18,0-0.347-0.039-0.501-0.116s-0.309-0.18-0.463-0.308
			c-0.154-0.128-0.385-0.295-0.693-0.502c1.027-0.308,1.979-0.783,2.854-1.427c0.874-0.643,1.67-1.362,2.391-2.16
			c0.72-0.796,1.389-1.645,2.007-2.545c0.616-0.899,1.182-1.786,1.695-2.661c0.154,0.36,0.386,0.771,0.695,1.234
			c0.309,0.463,0.563,0.925,0.771,1.389c0.204,0.462,0.319,0.913,0.347,1.35c0.024,0.438-0.115,0.81-0.424,1.118
			c-1.029,1.03-2.199,1.981-3.511,2.854C389.152,53.066,387.699,53.631,386.105,53.888z"/>
		<path style="fill:#F9D543;" d="M407.471,49.183c-0.309,0.926-0.707,2.16-1.195,3.702c-0.489,1.543-1.029,3.253-1.621,5.129
			c-0.59,1.878-1.194,3.831-1.812,5.862c-0.616,2.032-1.209,3.972-1.775,5.824c-0.153,0.567-0.397,1.427-0.731,2.583
			c-0.335,1.157-0.655,2.418-0.964,3.779c-0.309,1.363-0.578,2.766-0.81,4.205c-0.232,1.439-0.36,2.75-0.386,3.934
			c-0.027,1.182,0.102,2.146,0.386,2.893c0.281,0.744,0.81,1.117,1.58,1.117c0.617,0,1.183-0.166,1.697-0.5
			c0.514-0.336,0.976-0.76,1.389-1.273c0.411-0.514,0.771-1.068,1.08-1.658c0.308-0.592,0.59-1.145,0.849-1.658
			c0.102-0.359,0.385-0.514,0.849-0.463c0.462,0.051,0.873,0.076,1.233,0.076c-0.308,0.979-0.721,1.967-1.233,2.969
			c-0.516,1.004-1.146,1.891-1.891,2.662c-0.746,0.771-1.58,1.389-2.506,1.852c-0.927,0.463-1.979,0.668-3.163,0.617
			c-1.594-0.051-2.843-0.463-3.74-1.234c-0.901-0.771-1.544-1.748-1.929-2.932c-0.386-1.182-0.553-2.506-0.502-3.973
			c0.052-1.465,0.206-2.941,0.463-4.434c0.257-1.49,0.565-2.943,0.927-4.357c0.358-1.415,0.693-2.662,1.002-3.742
			c0.463-1.594,0.937-3.291,1.427-5.091c0.488-1.8,0.99-3.548,1.504-5.245s1.004-3.316,1.466-4.859
			c0.463-1.543,0.873-2.88,1.233-4.011c0.309-1.028,0.63-1.748,0.965-2.16c0.334-0.411,0.757-0.681,1.273-0.81
			c0.512-0.127,1.207-0.179,2.081-0.154c0.874,0.026,2.007-0.039,3.395-0.193c-0.104,0.258-0.193,0.514-0.271,0.771
			C407.663,48.669,407.574,48.926,407.471,49.183z"/>
		<path style="fill:#F9D543;" d="M417.188,83.197c0.154-0.41,0.45-0.59,0.887-0.539s0.86,0.076,1.273,0.076
			c-0.309,0.979-0.722,1.967-1.233,2.969c-0.516,1.004-1.146,1.891-1.891,2.662s-1.581,1.389-2.507,1.852s-1.979,0.668-3.162,0.617
			c-1.646-0.051-2.919-0.463-3.817-1.234c-0.901-0.771-1.531-1.748-1.891-2.932c-0.36-1.182-0.515-2.506-0.462-3.973
			c0.05-1.465,0.204-2.941,0.462-4.434c0.258-1.49,0.565-2.943,0.926-4.357c0.359-1.415,0.693-2.662,1.004-3.742
			c0.308-1.131,0.628-2.301,0.963-3.51c0.334-1.207,0.682-2.403,1.041-3.586c0.308-1.028,0.604-1.748,0.888-2.16
			c0.282-0.412,0.681-0.681,1.195-0.81c0.514-0.127,1.195-0.179,2.043-0.154c0.85,0.027,1.941-0.039,3.278-0.193
			c-0.104,0.258-0.192,0.566-0.27,0.926c-0.077,0.36-0.166,0.669-0.27,0.926c-0.413,1.337-0.823,2.699-1.234,4.088
			c-0.412,1.388-0.823,2.726-1.234,4.011c-0.154,0.567-0.398,1.427-0.732,2.583c-0.335,1.157-0.656,2.418-0.964,3.779
			c-0.309,1.363-0.579,2.766-0.81,4.205c-0.232,1.439-0.361,2.75-0.387,3.934c-0.025,1.182,0.103,2.146,0.387,2.893
			c0.281,0.744,0.81,1.117,1.581,1.117c0.616,0,1.182-0.166,1.696-0.5c0.514-0.336,0.977-0.746,1.389-1.236
			c0.412-0.486,0.771-1.027,1.079-1.619S416.982,83.713,417.188,83.197z M414.412,56.896c-0.926,0-1.697-0.334-2.313-1.002
			c-0.617-0.667-0.875-1.491-0.771-2.468c0.103-0.976,0.514-1.799,1.233-2.468c0.72-0.668,1.568-1.003,2.546-1.003
			c0.926,0,1.696,0.335,2.313,1.003c0.617,0.668,0.875,1.492,0.772,2.468c-0.104,0.978-0.516,1.801-1.235,2.468
			C416.236,56.562,415.388,56.896,414.412,56.896z"/>
		<path style="fill:#F9D543;" d="M446.267,83.121c0.154-0.359,0.463-0.514,0.926-0.463s0.874,0.076,1.234,0.076
			c-0.36,0.979-0.798,1.967-1.312,2.969c-0.515,1.004-1.131,1.891-1.851,2.662c-0.721,0.771-1.544,1.389-2.469,1.852
			s-1.979,0.668-3.162,0.617c-2.109-0.104-3.613-0.732-4.512-1.891c-0.9-1.156-1.427-2.609-1.582-4.357
			c-1.338,1.852-2.814,3.355-4.436,4.512c-1.618,1.158-3.354,1.736-5.205,1.736c-2.469,0-4.295-0.771-5.477-2.314
			c-1.183-1.543-1.839-3.482-1.967-5.824c-0.128-2.338,0.167-4.871,0.886-7.598c0.72-2.725,1.787-5.255,3.202-7.597
			c1.413-2.339,3.071-4.292,4.976-5.861c1.901-1.568,3.933-2.353,6.093-2.353c1.542,0,2.815,0.347,3.818,1.041
			c1.002,0.694,1.785,1.633,2.352,2.815c0.31-1.08,0.604-1.825,0.888-2.237c0.281-0.412,0.68-0.668,1.195-0.771
			c0.514-0.103,1.195-0.154,2.043-0.154c0.849,0,1.967-0.077,3.356-0.231c-0.104,0.258-0.193,0.566-0.271,0.926
			c-0.077,0.36-0.168,0.669-0.27,0.926c-0.412,1.337-0.823,2.699-1.234,4.088c-0.412,1.388-0.823,2.726-1.233,4.011
			c-0.154,0.567-0.399,1.427-0.733,2.583c-0.335,1.157-0.655,2.418-0.965,3.779c-0.309,1.363-0.578,2.766-0.81,4.205
			s-0.359,2.75-0.386,3.934c-0.026,1.182,0.104,2.146,0.386,2.893c0.283,0.744,0.81,1.117,1.581,1.117
			c0.618,0,1.183-0.166,1.697-0.5c0.514-0.336,0.977-0.76,1.389-1.273c0.41-0.514,0.771-1.068,1.08-1.658
			C445.805,84.188,446.062,83.635,446.267,83.121z M425.132,88.211c1.286,0,2.521-0.643,3.703-1.928s2.248-2.904,3.201-4.859
			c0.95-1.953,1.747-4.062,2.392-6.326c0.642-2.261,1.027-4.369,1.157-6.324c0.127-1.953-0.014-3.573-0.425-4.859
			c-0.413-1.284-1.184-1.928-2.314-1.928s-2.274,0.644-3.433,1.928c-1.156,1.286-2.225,2.906-3.2,4.859
			c-0.978,1.956-1.825,4.063-2.545,6.324c-0.722,2.264-1.171,4.373-1.35,6.326c-0.182,1.955-0.065,3.574,0.347,4.859
			C423.075,87.568,423.899,88.211,425.132,88.211z"/>
	</g>
</g>
</svg>
