<?xml version="1.0" encoding="utf-8"?>
<!-- Generator: Adobe Illustrator 16.0.0, SVG Export Plug-In . SVG Version: 6.00 Build 0)  -->
<!DOCTYPE svg PUBLIC "-//W3C//DTD SVG 1.1//EN" "http://www.w3.org/Graphics/SVG/1.1/DTD/svg11.dtd">
<svg version="1.1" id="Layer_1" xmlns="http://www.w3.org/2000/svg" xmlns:xlink="http://www.w3.org/1999/xlink" x="0px" y="0px"
	 width="450px" height="59px" viewBox="0 0 450 59" enable-background="new 0 0 450 59" xml:space="preserve">
<g>
	<g>
		<g>
			<g>
				<path fill="#FFFFFF" d="M18.923,8.04H33.32l18.303,43.743H35.861l-2.292-5.829H18.366l-2.233,5.829H0.62L18.923,8.04z
					 M29.968,35.653l-3.971-10.551l-3.972,10.551H29.968z"/>
				<path fill="#262261" d="M44.053,8.351h16.255l8.438,24.384L77.99,8.218h16.009L75.573,52.096H61.673L44.053,8.351z"/>
				<path fill="#FFFFFF" d="M103.928,8.04h14.395l18.304,43.743h-15.761l-2.295-5.829h-15.202l-2.234,5.829H85.623L103.928,8.04z
					 M114.972,35.653L111,25.102l-3.969,10.551H114.972z"/>
				<path fill="#FFFFFF" d="M138.424,8.351h13.59l15.449,19.173V8.351h14.396v43.432h-12.908l-16.132-20.041v20.041h-14.396V8.351z"
					/>
				<path fill="#FFFFFF" d="M197.617,57.867l4.713-5.958c-9.306-2.421-16.503-10.549-16.503-21.717v-0.124
					c0-12.969,10.114-22.648,23.081-22.648c9.558,0,16.009,4.654,19.67,11.294l-11.976,7.01c-1.612-3.102-3.908-5.275-7.88-5.275
					c-4.9,0-8.127,4.283-8.127,9.495v0.125c0,5.645,3.351,9.617,8.127,9.617c4.097,0,6.394-2.23,8.192-5.461l11.975,6.765
					c-3.289,5.831-8.564,10.671-17.499,11.54l-2.978,9.989L197.617,57.867z"/>
				<path fill="#FFFFFF" d="M246.074,8.04h14.396l18.303,43.743h-15.761l-2.295-5.829h-15.203l-2.234,5.829h-15.512L246.074,8.04z
					 M257.118,35.653l-3.972-10.551l-3.971,10.551H257.118z"/>
			</g>
		</g>
	</g>
	<g>
		<path fill="#262261" d="M322.089,8.3c-0.331,0.996-0.76,2.324-1.284,3.983c-0.527,1.66-1.108,3.5-1.743,5.518
			c-0.637,2.02-1.286,4.121-1.95,6.305c-0.664,2.186-1.3,4.274-1.907,6.266c-0.168,0.61-0.431,1.535-0.79,2.779
			c-0.359,1.246-0.704,2.602-1.037,4.066c-0.331,1.467-0.621,2.975-0.87,4.523s-0.388,2.958-0.415,4.231
			c-0.029,1.274,0.11,2.311,0.415,3.112c0.303,0.803,0.87,1.203,1.701,1.203c0.663,0,1.271-0.179,1.825-0.539
			c0.552-0.359,1.05-0.815,1.493-1.37c0.442-0.552,0.831-1.148,1.162-1.783c0.331-0.636,0.634-1.23,0.913-1.785
			c0.166-0.386,0.497-0.551,0.995-0.497c0.497,0.055,0.938,0.082,1.328,0.082c-0.39,1.053-0.858,2.117-1.411,3.195
			c-0.555,1.079-1.231,2.033-2.033,2.863c-0.802,0.83-1.7,1.493-2.696,1.992c-0.996,0.498-2.131,0.718-3.401,0.664
			c-1.717-0.054-3.059-0.499-4.025-1.328c-0.969-0.83-1.659-1.88-2.075-3.154c-0.414-1.272-0.594-2.696-0.539-4.274
			c0.055-1.575,0.221-3.165,0.499-4.77c0.274-1.604,0.607-3.167,0.997-4.689c0.384-1.521,0.744-2.863,1.077-4.024
			c0.608-2.158,1.244-4.412,1.907-6.764c0.665-2.349,1.328-4.604,1.992-6.762L291.72,48.047c-0.609,0.885-1.078,1.535-1.409,1.95
			c-0.334,0.414-0.68,0.705-1.039,0.871s-0.844,0.291-1.452,0.373c-0.609,0.083-1.438,0.236-2.488,0.458
			c0.11-0.609,0.207-1.273,0.289-1.992c0.085-0.718,0.209-1.548,0.373-2.489c0.277-1.714,0.595-3.664,0.956-5.85
			c0.358-2.185,0.747-4.453,1.161-6.804c0.415-2.351,0.843-4.689,1.285-7.013c0.443-2.323,0.872-4.522,1.288-6.597
			c0.415-2.074,0.815-3.912,1.202-5.518c0.386-1.604,0.719-2.875,0.996-3.817c0.056-0.111,0.082-0.22,0.082-0.332
			c0-0.11,0.028-0.22,0.083-0.331c-0.884,0.775-1.783,1.798-2.696,3.069c-0.913,1.272-2.005,2.96-3.277,5.062
			c-1.493,2.546-3.058,5.284-4.688,8.215c-1.632,2.933-3.318,5.85-5.062,8.755c-1.742,2.905-3.555,5.698-5.436,8.38
			c-1.882,2.683-3.858,5.049-5.933,7.095s-4.231,3.679-6.473,4.896c-2.24,1.216-4.604,1.796-7.095,1.743
			c-3.485-0.057-6.196-0.914-8.134-2.573c-1.936-1.66-3.222-3.72-3.856-6.183c-0.637-2.46-0.72-5.131-0.249-8.007
			c0.469-2.876,1.354-5.56,2.655-8.049s2.946-4.577,4.938-6.265c1.993-1.687,4.176-2.558,6.555-2.615
			c1.605-0.054,2.85,0.332,3.735,1.162c0.883,0.83,1.631,1.937,2.24,3.319c-0.996-0.167-1.951-0.234-2.863-0.208
			c-0.914,0.03-1.812,0.125-2.696,0.291c-2.436,0.499-4.522,1.495-6.267,2.988c-1.742,1.495-3.097,3.209-4.066,5.145
			c-0.967,1.938-1.575,3.971-1.824,6.1c-0.248,2.13-0.081,4.095,0.497,5.891c0.581,1.799,1.563,3.278,2.947,4.44
			c1.382,1.163,3.208,1.743,5.476,1.743c1.604,0,3.249-0.568,4.938-1.701c1.687-1.132,3.415-2.669,5.185-4.607
			c1.771-1.935,3.569-4.148,5.395-6.637c1.825-2.491,3.651-5.103,5.477-7.841c1.825-2.739,3.637-5.477,5.435-8.215
			c1.798-2.739,3.555-5.297,5.27-7.676c1.382-1.936,2.626-3.651,3.735-5.146c1.104-1.493,2.28-2.75,3.524-3.774
			c1.245-1.022,2.685-1.797,4.317-2.324c1.631-0.525,3.692-0.788,6.181-0.788c-0.444,2.158-0.912,4.551-1.41,7.178
			c-0.497,2.628-1.011,5.339-1.536,8.133c-0.525,2.793-1.066,5.573-1.618,8.34c-0.553,2.766-1.078,5.365-1.576,7.798L315.204,8.05
			c0.441-0.607,0.925-0.953,1.451-1.036c0.525-0.083,1.258-0.125,2.198-0.125c0.275-0.055,0.568-0.083,0.872-0.083
			c0.303,0,0.649,0,1.037,0l1.909-0.083C322.505,7.222,322.312,7.748,322.089,8.3z"/>
		<path fill="#262261" d="M350.884,44.811c0.166-0.386,0.497-0.551,0.995-0.497c0.497,0.055,0.939,0.082,1.327,0.082
			c-0.388,1.053-0.857,2.117-1.41,3.195c-0.553,1.079-1.218,2.033-1.991,2.863c-0.774,0.83-1.661,1.493-2.655,1.992
			c-0.996,0.498-2.13,0.718-3.403,0.664c-2.269-0.111-3.887-0.789-4.854-2.032c-0.967-1.246-1.534-2.808-1.701-4.69
			c-1.438,1.992-3.028,3.611-4.771,4.854c-1.741,1.246-3.609,1.868-5.6,1.868c-2.658,0-4.62-0.83-5.893-2.49
			s-1.979-3.747-2.115-6.266c-0.138-2.515,0.179-5.239,0.953-8.173c0.773-2.931,1.922-5.655,3.444-8.174
			c1.521-2.516,3.304-4.618,5.352-6.306c2.046-1.688,4.232-2.531,6.557-2.531c1.658,0,3.028,0.374,4.106,1.119
			c1.078,0.748,1.922,1.758,2.531,3.03c0.332-1.161,0.649-1.963,0.954-2.407c0.303-0.442,0.732-0.717,1.286-0.83
			c0.553-0.11,1.287-0.166,2.199-0.166c0.913,0,2.115-0.082,3.609-0.249c-0.111,0.278-0.208,0.61-0.291,0.995
			c-0.082,0.389-0.181,0.721-0.289,0.997c-0.443,1.438-0.887,2.903-1.329,4.399c-0.443,1.492-0.886,2.931-1.327,4.313
			c-0.165,0.61-0.43,1.535-0.787,2.779c-0.361,1.246-0.707,2.602-1.039,4.066c-0.331,1.467-0.622,2.975-0.871,4.523
			s-0.387,2.958-0.415,4.231c-0.028,1.274,0.111,2.311,0.415,3.112c0.305,0.803,0.871,1.203,1.701,1.203
			c0.665,0,1.273-0.179,1.825-0.539c0.552-0.359,1.051-0.815,1.493-1.37c0.442-0.552,0.831-1.148,1.164-1.783
			C350.385,45.959,350.662,45.365,350.884,44.811z M328.146,50.287c1.382,0,2.711-0.69,3.983-2.075
			c1.271-1.381,2.42-3.125,3.443-5.227c1.022-2.102,1.88-4.37,2.573-6.805c0.689-2.433,1.105-4.701,1.244-6.804
			c0.138-2.102-0.014-3.844-0.455-5.229c-0.445-1.382-1.274-2.073-2.491-2.073c-1.216,0-2.447,0.691-3.692,2.073
			c-1.245,1.385-2.394,3.127-3.443,5.229c-1.051,2.103-1.965,4.371-2.738,6.804c-0.775,2.435-1.259,4.703-1.451,6.805
			c-0.195,2.102-0.07,3.845,0.373,5.227C325.935,49.597,326.82,50.287,328.146,50.287z"/>
		<path fill="#262261" d="M375.693,44.811c0.167-0.386,0.498-0.551,0.996-0.497c0.497,0.055,0.939,0.082,1.327,0.082
			c-0.388,1.053-0.857,2.103-1.41,3.154c-0.554,1.051-1.218,2.006-1.992,2.862c-0.773,0.858-1.658,1.535-2.654,2.033
			c-0.996,0.498-2.13,0.718-3.402,0.664c-1.771-0.054-3.14-0.469-4.108-1.245c-0.968-0.775-1.659-1.77-2.073-2.988
			c-0.415-1.216-0.61-2.572-0.581-4.065c0.026-1.493,0.166-3.028,0.415-4.605c0.247-1.577,0.567-3.098,0.954-4.564
			c0.387-1.464,0.747-2.78,1.079-3.94c0.111-0.277,0.193-0.582,0.248-0.913c0.056-0.333,0.138-0.637,0.249-0.914
			c0.221-0.884,0.4-1.521,0.539-1.908c0.139-0.387,0.166-0.676,0.084-0.871c-0.084-0.193-0.319-0.36-0.706-0.499
			c-0.387-0.138-0.995-0.4-1.825-0.788c-0.277-0.166-0.608-0.344-0.996-0.539c-0.388-0.192-0.886-0.428-1.492-0.706
			c-0.498,1.328-1.095,2.96-1.785,4.896c-0.693,1.938-1.384,3.887-2.074,5.851c-0.693,1.964-1.343,3.789-1.95,5.476
			c-0.608,1.688-1.079,2.946-1.411,3.776c-0.166,0.443-0.498,0.637-0.995,0.581c-0.497-0.054-0.942-0.083-1.327-0.083
			c0.275-0.664,0.717-1.921,1.327-3.775c0.608-1.852,1.258-3.884,1.95-6.098c0.689-2.212,1.396-4.397,2.115-6.557
			c0.719-2.157,1.3-3.871,1.743-5.144c-1.217-0.719-2.048-1.438-2.489-2.158c-0.444-0.718-0.664-1.355-0.664-1.909
			c0-0.664,0.317-1.175,0.954-1.535c0.636-0.359,1.411-0.649,2.322-0.871c0.915-0.221,1.88-0.428,2.906-0.623
			c1.022-0.193,1.95-0.457,2.779-0.788c-0.277,0.995-0.512,1.771-0.705,2.324c-0.194,0.553-0.403,1.134-0.622,1.742
			c1.825,0.776,3.622,1.494,5.394,2.157c1.16,0.442,2.087,0.845,2.78,1.204c0.69,0.36,1.174,0.802,1.451,1.327
			c0.276,0.526,0.374,1.177,0.291,1.951c-0.084,0.774-0.32,1.798-0.706,3.07c-0.111,0.277-0.195,0.58-0.25,0.914
			c-0.055,0.331-0.138,0.635-0.247,0.912c-0.167,0.609-0.416,1.508-0.748,2.697c-0.332,1.19-0.664,2.489-0.995,3.9
			c-0.332,1.411-0.61,2.85-0.83,4.315c-0.222,1.465-0.332,2.793-0.332,3.982c0,1.19,0.152,2.172,0.457,2.945
			c0.303,0.776,0.869,1.163,1.7,1.163c0.665,0,1.272-0.179,1.827-0.539c0.551-0.359,1.049-0.801,1.493-1.328
			c0.441-0.525,0.829-1.106,1.161-1.742C375.195,45.959,375.472,45.365,375.693,44.811z"/>
		<path fill="#262261" d="M388.722,44.887c0.166-0.438,0.483-0.627,0.953-0.573c0.47,0.055,0.927,0.082,1.369,0.082
			c-0.331,1.053-0.774,2.117-1.327,3.195c-0.553,1.079-1.232,2.033-2.033,2.863c-0.802,0.83-1.701,1.493-2.696,1.992
			c-0.997,0.498-2.131,0.718-3.402,0.664c-1.771-0.058-3.142-0.512-4.106-1.367c-0.971-0.853-1.647-1.918-2.034-3.192
			c-0.388-1.275-0.553-2.702-0.499-4.278c0.055-1.576,0.222-3.166,0.499-4.771c0.276-1.604,0.608-3.166,0.995-4.688
			c0.387-1.521,0.747-2.863,1.08-4.023c0.331-1.217,0.676-2.476,1.036-3.776c0.36-1.299,0.733-2.585,1.121-3.858
			c0.331-1.106,0.649-1.881,0.954-2.324c0.303-0.442,0.732-0.732,1.286-0.871c0.552-0.137,1.286-0.193,2.198-0.165
			c0.914,0.028,2.089-0.042,3.527-0.208c-0.111,0.277-0.209,0.61-0.291,0.995c-0.083,0.389-0.18,0.721-0.291,0.997
			c-0.443,1.438-0.885,2.904-1.326,4.397c-0.445,1.495-0.886,2.934-1.328,4.317c-0.167,0.609-0.43,1.534-0.789,2.777
			c-0.36,1.246-0.705,2.602-1.036,4.066c-0.333,1.467-0.622,2.975-0.871,4.523c-0.25,1.549-0.388,2.96-0.415,4.232
			c-0.029,1.272,0.109,2.311,0.415,3.111c0.303,0.803,0.871,1.204,1.7,1.204c0.664,0,1.271-0.176,1.825-0.531
			c0.553-0.354,1.05-0.79,1.493-1.308c0.443-0.52,0.83-1.09,1.163-1.718C388.224,46.02,388.498,45.433,388.722,44.887z
			 M381.337,13.361c-0.388,0.056-0.68,0.083-0.873,0.083c-0.194,0-0.372-0.042-0.538-0.125c-0.167-0.082-0.333-0.192-0.499-0.331
			c-0.166-0.137-0.415-0.317-0.746-0.54c1.106-0.332,2.128-0.841,3.07-1.534c0.939-0.692,1.797-1.466,2.573-2.325
			c0.772-0.856,1.492-1.77,2.155-2.737c0.666-0.968,1.272-1.922,1.826-2.864c0.166,0.387,0.416,0.83,0.747,1.327
			c0.333,0.499,0.608,0.997,0.83,1.496c0.221,0.497,0.345,0.982,0.373,1.451c0.028,0.471-0.124,0.872-0.456,1.203
			c-1.108,1.108-2.366,2.13-3.775,3.07C384.613,12.478,383.05,13.085,381.337,13.361z"/>
		<path fill="#262261" d="M404.32,8.3c-0.332,0.996-0.76,2.324-1.286,3.983c-0.525,1.66-1.107,3.5-1.742,5.518
			c-0.636,2.02-1.286,4.121-1.95,6.305c-0.664,2.186-1.3,4.274-1.908,6.266c-0.166,0.61-0.43,1.535-0.788,2.779
			c-0.36,1.246-0.706,2.602-1.038,4.066c-0.331,1.467-0.622,2.975-0.871,4.523c-0.248,1.548-0.388,2.958-0.414,4.231
			c-0.029,1.274,0.109,2.311,0.414,3.112c0.305,0.803,0.871,1.203,1.701,1.203c0.664,0,1.271-0.179,1.827-0.539
			c0.551-0.359,1.05-0.815,1.493-1.37c0.441-0.552,0.828-1.148,1.161-1.783c0.331-0.636,0.635-1.23,0.913-1.785
			c0.109-0.386,0.414-0.551,0.912-0.497c0.497,0.055,0.939,0.082,1.327,0.082c-0.332,1.053-0.774,2.117-1.327,3.195
			c-0.554,1.079-1.23,2.033-2.032,2.863c-0.803,0.83-1.701,1.493-2.697,1.992c-0.996,0.498-2.13,0.718-3.401,0.664
			c-1.717-0.054-3.06-0.499-4.024-1.328c-0.97-0.83-1.661-1.88-2.075-3.154c-0.416-1.272-0.596-2.696-0.54-4.274
			c0.056-1.575,0.222-3.165,0.498-4.77c0.274-1.604,0.608-3.167,0.997-4.689c0.385-1.521,0.747-2.863,1.077-4.024
			c0.498-1.714,1.008-3.54,1.535-5.477c0.525-1.937,1.064-3.817,1.619-5.643c0.551-1.826,1.077-3.569,1.576-5.228
			c0.497-1.659,0.94-3.097,1.326-4.315c0.333-1.105,0.678-1.88,1.04-2.324c0.357-0.442,0.814-0.733,1.368-0.871
			c0.552-0.138,1.298-0.194,2.239-0.166c0.94,0.028,2.158-0.042,3.652-0.208c-0.112,0.278-0.209,0.554-0.292,0.83
			C404.528,7.748,404.431,8.024,404.32,8.3z"/>
		<path fill="#262261" d="M414.775,44.894c0.167-0.441,0.484-0.634,0.954-0.58c0.471,0.055,0.927,0.082,1.369,0.082
			c-0.331,1.053-0.774,2.117-1.327,3.195c-0.553,1.079-1.232,2.033-2.034,2.863c-0.801,0.83-1.7,1.493-2.696,1.992
			c-0.995,0.498-2.13,0.718-3.401,0.664c-1.771-0.054-3.14-0.499-4.106-1.328c-0.97-0.83-1.646-1.88-2.033-3.154
			c-0.389-1.272-0.554-2.696-0.499-4.274c0.054-1.575,0.221-3.165,0.499-4.77c0.275-1.604,0.606-3.167,0.995-4.689
			c0.387-1.521,0.746-2.863,1.079-4.024c0.332-1.217,0.676-2.476,1.036-3.775c0.36-1.3,0.733-2.586,1.121-3.859
			c0.332-1.106,0.649-1.88,0.954-2.324c0.303-0.442,0.732-0.733,1.286-0.872c0.552-0.136,1.286-0.192,2.199-0.165
			c0.913,0.029,2.088-0.042,3.526-0.208c-0.111,0.278-0.209,0.61-0.291,0.995c-0.083,0.389-0.18,0.721-0.291,0.997
			c-0.443,1.438-0.885,2.903-1.327,4.399c-0.444,1.492-0.886,2.931-1.327,4.313c-0.167,0.61-0.43,1.535-0.788,2.779
			c-0.36,1.246-0.706,2.602-1.037,4.066c-0.333,1.467-0.623,2.975-0.871,4.523c-0.249,1.548-0.388,2.958-0.414,4.231
			c-0.029,1.274,0.108,2.311,0.414,3.112c0.303,0.803,0.871,1.203,1.699,1.203c0.665,0,1.272-0.179,1.826-0.539
			c0.552-0.359,1.051-0.802,1.494-1.328c0.442-0.525,0.829-1.106,1.162-1.741C414.278,46.042,414.553,45.448,414.775,44.894z
			 M411.788,16.597c-0.995,0-1.825-0.359-2.489-1.079c-0.663-0.717-0.94-1.604-0.83-2.654c0.111-1.051,0.554-1.937,1.329-2.656
			c0.773-0.719,1.685-1.078,2.736-1.078c0.996,0,1.825,0.359,2.491,1.078c0.663,0.719,0.939,1.605,0.829,2.656
			c-0.112,1.05-0.555,1.937-1.328,2.654C413.752,16.238,412.839,16.597,411.788,16.597z"/>
		<path fill="#262261" d="M446.059,44.811c0.165-0.386,0.498-0.551,0.995-0.497c0.499,0.055,0.94,0.082,1.328,0.082
			c-0.388,1.053-0.857,2.117-1.411,3.195c-0.553,1.079-1.217,2.033-1.99,2.863c-0.776,0.83-1.659,1.493-2.656,1.992
			c-0.995,0.498-2.13,0.718-3.401,0.664c-2.271-0.111-3.887-0.789-4.855-2.032c-0.968-1.246-1.534-2.808-1.699-4.69
			c-1.439,1.992-3.029,3.611-4.772,4.854c-1.744,1.246-3.608,1.868-5.602,1.868c-2.654,0-4.619-0.83-5.891-2.49
			c-1.272-1.66-1.978-3.747-2.117-6.266c-0.137-2.515,0.18-5.239,0.956-8.173c0.773-2.931,1.92-5.655,3.441-8.174
			c1.522-2.516,3.307-4.618,5.355-6.306c2.043-1.688,4.23-2.531,6.552-2.531c1.662,0,3.029,0.374,4.109,1.119
			c1.078,0.748,1.921,1.758,2.531,3.03c0.331-1.161,0.648-1.963,0.953-2.407c0.305-0.442,0.734-0.717,1.287-0.83
			c0.551-0.11,1.286-0.166,2.199-0.166c0.911,0,2.115-0.082,3.609-0.249c-0.112,0.278-0.208,0.61-0.291,0.995
			c-0.083,0.389-0.18,0.721-0.29,0.997c-0.444,1.438-0.886,2.903-1.328,4.399c-0.442,1.492-0.885,2.931-1.327,4.313
			c-0.167,0.61-0.429,1.535-0.789,2.779c-0.361,1.246-0.704,2.602-1.037,4.066c-0.332,1.467-0.621,2.975-0.87,4.523
			s-0.39,2.958-0.416,4.231c-0.026,1.274,0.11,2.311,0.416,3.112c0.302,0.803,0.87,1.203,1.701,1.203
			c0.662,0,1.271-0.179,1.824-0.539c0.554-0.359,1.05-0.815,1.494-1.37c0.442-0.552,0.83-1.148,1.162-1.783
			C445.561,45.959,445.837,45.365,446.059,44.811z M423.322,50.287c1.382,0,2.71-0.69,3.983-2.075
			c1.271-1.381,2.419-3.125,3.443-5.227c1.022-2.102,1.879-4.37,2.571-6.805c0.691-2.433,1.107-4.701,1.246-6.804
			c0.137-2.102-0.015-3.844-0.457-5.229c-0.443-1.382-1.273-2.073-2.489-2.073c-1.218,0-2.447,0.691-3.691,2.073
			c-1.246,1.385-2.395,3.127-3.444,5.229c-1.052,2.103-1.965,4.371-2.738,6.804c-0.775,2.435-1.26,4.703-1.452,6.805
			c-0.195,2.102-0.071,3.845,0.373,5.227C421.109,49.597,421.994,50.287,423.322,50.287z"/>
	</g>
</g>
</svg>
