<?xml version="1.0" encoding="utf-8"?>
<!-- Generator: Adobe Illustrator 16.0.0, SVG Export Plug-In . SVG Version: 6.00 Build 0)  -->
<!DOCTYPE svg PUBLIC "-//W3C//DTD SVG 1.1//EN" "http://www.w3.org/Graphics/SVG/1.1/DTD/svg11.dtd">
<svg version="1.1" id="Layer_1" xmlns="http://www.w3.org/2000/svg" xmlns:xlink="http://www.w3.org/1999/xlink" x="0px" y="0px"
	 width="415px" height="135px" viewBox="0 0 415 135" style="enable-background:new 0 0 415 135;" xml:space="preserve">
<g>
	<g>
		<path style="fill:#1A2854;" d="M88.731,36.166h22.3v7.172H97.322v2.652h12.775v6.313H97.322v2.839h13.896v7.172H88.731V36.166z"/>
		<path style="fill:#1A2854;" d="M112.153,36.166h8.741v26.147h-8.741V36.166z"/>
		<path style="fill:#1A2854;" d="M148.274,36.166l-8.479,12.738l8.853,13.41h-9.937l-4.146-6.798l-4.184,6.798h-9.75l8.853-13.298
			l-8.479-12.85h9.936l3.773,6.238l3.81-6.238H148.274z"/>
		<path style="fill:#1A2854;" d="M145.662,49.314v-0.075c0-7.583,6.238-13.634,14.307-13.634S174.2,41.582,174.2,49.165v0.075
			c0,7.583-6.238,13.634-14.307,13.634S145.662,56.896,145.662,49.314z M165.385,49.314v-0.075c0-3.101-2.129-5.902-5.491-5.902
			c-3.324,0-5.416,2.764-5.416,5.827v0.075c0,3.101,2.129,5.902,5.491,5.902C163.293,55.141,165.385,52.377,165.385,49.314z"/>
		<path style="fill:#1A2854;" d="M172.746,58.391l4.669-5.565c2.839,2.167,6.089,3.063,9.152,3.063c1.569,0,2.241-0.411,2.241-1.121
			v-0.075c0-0.747-0.822-1.158-3.624-1.718c-5.864-1.195-11.019-2.876-11.019-8.404v-0.075c0-4.968,3.885-8.815,11.094-8.815
			c5.042,0,8.778,1.195,11.804,3.586l-4.259,5.902c-2.465-1.793-5.416-2.578-7.844-2.578c-1.308,0-1.905,0.448-1.905,1.083v0.074
			c0,0.71,0.71,1.158,3.474,1.681c6.687,1.233,11.169,3.175,11.169,8.442v0.075c0,5.491-4.52,8.853-11.542,8.853
			C180.852,62.799,176.07,61.305,172.746,58.391z"/>
		<path style="fill:#FFFFFF;" d="M88.731,70.333h11.766c6.948,0,11.692,3.101,11.692,9.301v0.075c0,6.312-4.819,9.674-11.878,9.674
			h-2.839v7.098h-8.741V70.333z M99.825,83.146c2.241,0,3.735-1.009,3.735-2.876v-0.075c0-1.905-1.382-2.876-3.698-2.876h-2.391
			v5.827H99.825z"/>
		<path style="fill:#FFFFFF;" d="M112.564,70.333h12.775c4.632,0,7.583,1.158,9.413,2.988c1.569,1.569,2.391,3.511,2.391,6.2v0.075
			c0,3.81-1.98,6.462-5.155,7.993l6.089,8.891h-9.974l-4.931-7.471h-1.868v7.471h-8.741V70.333z M125.078,82.771
			c2.092,0,3.361-0.934,3.361-2.54v-0.074c0-1.681-1.307-2.503-3.324-2.503h-3.81v5.117H125.078z"/>
		<path style="fill:#FFFFFF;" d="M137.182,83.481v-0.075c0-7.582,6.238-13.634,14.306-13.634s14.232,5.977,14.232,13.56v0.074
			c0,7.583-6.238,13.635-14.306,13.635S137.182,91.064,137.182,83.481z M156.905,83.481v-0.075c0-3.1-2.129-5.901-5.491-5.901
			c-3.325,0-5.417,2.765-5.417,5.827v0.074c0,3.101,2.129,5.902,5.491,5.902C154.813,89.309,156.905,86.545,156.905,83.481z"/>
		<path style="fill:#FFFFFF;" d="M166.021,83.481v-0.075c0-7.807,6.163-13.634,14.418-13.634c4.482,0,8.106,1.494,10.945,3.96
			l-4.894,5.901c-1.718-1.456-3.623-2.278-5.79-2.278c-3.399,0-5.864,2.615-5.864,6.163v0.075c0,3.697,2.577,6.238,6.238,6.238
			c1.494,0,2.315-0.225,2.988-0.598v-2.615h-4.482v-5.604h12.663v12.104c-2.839,2.315-6.798,3.922-11.542,3.922
			C172.559,97.041,166.021,91.587,166.021,83.481z"/>
		<path style="fill:#FFFFFF;" d="M193.292,70.333h12.775c4.632,0,7.583,1.158,9.413,2.988c1.569,1.569,2.391,3.511,2.391,6.2v0.075
			c0,3.81-1.979,6.462-5.155,7.993l6.089,8.891h-9.974l-4.93-7.471h-1.868v7.471h-8.741V70.333z M205.805,82.771
			c2.092,0,3.362-0.934,3.362-2.54v-0.074c0-1.681-1.308-2.503-3.325-2.503h-3.81v5.117H205.805z"/>
		<path style="fill:#FFFFFF;" d="M226.688,70.146h8.666l11.02,26.334h-9.488l-1.382-3.512h-9.151l-1.345,3.512h-9.339
			L226.688,70.146z M233.336,86.769l-2.391-6.351l-2.391,6.351H233.336z"/>
		<path style="fill:#FFFFFF;" d="M245.964,70.333h9.114l5.604,9.188l5.603-9.188h9.114V96.48h-8.703V83.519l-6.014,9.302h-0.15
			l-6.014-9.302V96.48h-8.554V70.333z"/>
		<path style="fill:#FFFFFF;" d="M286.01,70.146h8.666l11.02,26.334h-9.488l-1.382-3.512h-9.151l-1.345,3.512h-9.339L286.01,70.146z
			 M290.642,62.228l8.629,1.942l-5.977,4.295h-6.238L290.642,62.228z M292.658,86.769l-2.391-6.351l-2.391,6.351H292.658z"/>
		<path style="fill:#FFFFFF;" d="M308.61,77.729h-7.695v-7.396h24.131v7.396h-7.695V96.48h-8.74V77.729z"/>
		<path style="fill:#FFFFFF;" d="M325.607,70.333h8.741V96.48h-8.741V70.333z"/>
		<path style="fill:#FFFFFF;" d="M335.32,83.481v-0.075c0-7.807,6.089-13.634,13.896-13.634c5.753,0,9.638,2.802,11.841,6.799
			l-7.209,4.221c-0.971-1.868-2.354-3.175-4.744-3.175c-2.951,0-4.893,2.577-4.893,5.715v0.074c0,3.399,2.017,5.79,4.893,5.79
			c2.466,0,3.848-1.345,4.931-3.287l7.21,4.071c-2.204,3.885-5.865,7.061-12.364,7.061C341.633,97.041,335.32,91.587,335.32,83.481z
			"/>
		<path style="fill:#FFFFFF;" d="M360.088,83.481v-0.075c0-7.582,6.238-13.634,14.307-13.634s14.231,5.977,14.231,13.56v0.074
			c0,7.583-6.238,13.635-14.307,13.635S360.088,91.064,360.088,83.481z M379.811,83.481v-0.075c0-3.1-2.129-5.901-5.491-5.901
			c-3.324,0-5.416,2.765-5.416,5.827v0.074c0,3.101,2.129,5.902,5.491,5.902C377.719,89.309,379.811,86.545,379.811,83.481z"/>
		<path style="fill:#FFFFFF;" d="M387.172,92.559l4.669-5.566c2.839,2.167,6.089,3.063,9.151,3.063c1.568,0,2.241-0.411,2.241-1.12
			V88.86c0-0.747-0.821-1.158-3.623-1.718c-5.864-1.195-11.02-2.877-11.02-8.405v-0.074c0-4.968,3.885-8.815,11.094-8.815
			c5.043,0,8.778,1.195,11.804,3.586l-4.258,5.901c-2.466-1.793-5.416-2.577-7.845-2.577c-1.308,0-1.905,0.448-1.905,1.083v0.075
			c0,0.709,0.71,1.158,3.475,1.681c6.686,1.232,11.168,3.175,11.168,8.442v0.074c0,5.491-4.52,8.853-11.542,8.853
			C395.277,96.966,390.496,95.472,387.172,92.559z"/>
	</g>
</g>
<g>
	<g>
		<polygon style="fill:#F9D543;" points="50.168,124.537 90.327,124.537 97.262,107.421 95.732,106.801 89.214,122.887 
			51.282,122.887 2.443,1.649 46.304,1.649 70.596,71.851 94.89,1.649 138.052,1.649 131.413,18.116 132.943,18.732 140.497,0 
			93.715,0 93.524,0.554 70.596,66.805 47.478,0 0,0 		"/>
	</g>
</g>
</svg>
